<?xml version="1.0"?>
<svg xmlns="http://www.w3.org/2000/svg" id="Capa_1" enable-background="new 0 0 512 512" height="512px" viewBox="0 0 512 512" width="512px" class=""><g><circle id="XMLID_1586_" cx="143.667" cy="61" fill="#f2bb88" r="51" data-original="#F2BB88" class="" data-old_color="#f2bb88" style="fill:#C497E6"/><circle id="XMLID_1585_" cx="368.333" cy="61" fill="#f2bb88" r="51" data-original="#F2BB88" class="" data-old_color="#f2bb88" style="fill:#C497E6"/><path id="XMLID_1576_" d="m139.097 319.891 57.168-57.168-69.217-69.217c-15.786-15.786-41.381-15.786-57.168 0-15.786 15.786-15.786 41.381 0 57.168z" fill="#b8866b" data-original="#B8866B" class="" data-old_color="#b8866b" style="fill:#E697DC"/><path id="XMLID_1575_" d="m372.903 319.891-57.168-57.168 69.217-69.217c15.786-15.786 41.381-15.786 57.168 0 15.786 15.786 15.786 41.381 0 57.168z" fill="#b8866b" data-original="#B8866B" class="" data-old_color="#b8866b" style="fill:#E697DC"/><circle id="XMLID_1138_" cx="256" cy="368.5" fill="#fff" r="133.5" data-original="#FFF"/><circle id="XMLID_1663_" cx="256" cy="368.5" fill="#b8866b" r="133.5" data-original="#B8866B" class="" data-old_color="#b8866b" style="fill:#E697DC"/><circle id="XMLID_1573_" cx="256" cy="416.25" fill="#cc9e83" r="85.75" data-original="#CC9E83" class="" data-old_color="#cc9e83" style="fill:#A3EEEC"/><ellipse id="XMLID_1220_" cx="150.729" cy="446.914" fill="#f2bb88" rx="53.5" ry="56.628" transform="matrix(.707 -.707 .707 .707 -271.868 237.48)" data-original="#F2BB88" class="" data-old_color="#f2bb88" style="fill:#C497E6"/><ellipse id="XMLID_1283_" cx="361.271" cy="446.914" fill="#f2bb88" rx="56.628" ry="53.5" transform="matrix(.707 -.707 .707 .707 -210.202 386.355)" data-original="#F2BB88" class="" data-old_color="#f2bb88" style="fill:#C497E6"/><circle id="XMLID_1554_" cx="256" cy="140.833" fill="#b8866b" r="130.833" data-original="#B8866B" class="" data-old_color="#b8866b" style="fill:#E697DC"/><path id="XMLID_1588_" d="m276.965 192.839-7.642 11.313c-6.314 9.347-20.077 9.347-26.392 0l-7.642-11.313c-7.145-10.576.432-24.839 13.196-24.839h15.285c12.763 0 20.34 14.263 13.195 24.839z" fill="#aac0c1" data-original="#AAC0C1" class=""/><path id="XMLID_672_" d="m449.19 186.436c-9.523-9.523-22.187-14.769-35.655-14.769-7.46 0-14.669 1.616-21.238 4.669 2.958-11.346 4.536-23.244 4.536-35.503 0-8.459-.751-16.746-2.187-24.799 20.972-10.042 34.687-31.436 34.687-55.034 0-33.636-27.364-61-61-61-16.517 0-31.946 6.518-43.353 18.089-20.4-11.509-43.935-18.089-68.98-18.089-25.048 0-48.584 6.581-68.985 18.092-11.4-11.574-26.799-18.092-43.348-18.092-33.636 0-61 27.364-61 61 0 23.825 13.651 45.033 34.685 55.046-1.435 8.049-2.185 16.332-2.185 24.787 0 12.26 1.578 24.157 4.536 35.503-6.569-3.054-13.779-4.669-21.238-4.669-13.469 0-26.132 5.245-35.655 14.769-19.659 19.66-19.659 51.649 0 71.311l59.241 59.24c-6.28 16.352-9.551 33.825-9.551 51.514 0 7.642.61 15.278 1.808 22.786-3.831 2.408-7.42 5.243-10.691 8.514-24.758 24.758-23.766 66.035 2.212 92.015 13.399 13.399 30.867 20.15 48.042 20.15 14.331 0 28.452-4.715 39.834-14.181 19.319 9.307 40.708 14.215 62.295 14.215 21.581 0 42.979-4.909 62.296-14.215 11.383 9.467 25.501 14.181 39.834 14.181 17.173 0 34.644-6.753 48.042-20.15 25.978-25.979 26.97-67.257 2.212-92.015-3.272-3.272-6.862-6.108-10.694-8.517 1.196-7.505 1.81-15.142 1.81-22.784 0-17.689-3.271-35.161-9.55-51.514l59.241-59.24c19.659-19.661 19.659-51.65-.001-71.31zm-80.857-166.436c22.607 0 41 18.393 41 41 0 14.5-7.7 27.765-19.788 35.093-8.948-26.64-25.66-49.743-47.433-66.618 7.289-6.091 16.473-9.475 26.221-9.475zm8.5 120.833c0 66.628-54.205 120.834-120.833 120.834s-120.833-54.206-120.833-120.834 54.205-120.833 120.833-120.833 120.833 54.205 120.833 120.833zm-274.166-79.833c0-22.607 18.393-41 41-41 9.768 0 18.947 3.375 26.23 9.468-21.781 16.879-38.499 39.991-47.447 66.641-12.116-7.295-19.783-20.467-19.783-35.109zm-25.715 182.604c-11.862-11.862-11.862-31.164 0-43.025 5.746-5.747 13.386-8.911 21.513-8.911 8.126 0 15.767 3.164 21.513 8.911l19.907 19.907c.032.032.067.058.099.089 8.526 12.366 18.974 23.308 30.912 32.39-15.749 11.625-29.064 26.403-38.951 43.363-.28.48-.541.97-.815 1.453zm43.019 234.069c-18.18-18.181-19.172-46.77-2.212-63.729 7.842-7.842 18.385-12.116 29.814-12.116.434 0 .871.006 1.309.019 12.145.345 23.725 5.427 32.606 14.31 18.18 18.18 19.172 46.769 2.212 63.729-16.961 16.959-45.551 15.967-63.729-2.213zm272.058 0c-18.179 18.18-46.769 19.173-63.729 2.212s-15.968-45.55 2.212-63.729c8.882-8.883 20.462-13.965 32.606-14.31 11.939-.364 22.983 3.958 31.123 12.098 16.96 16.959 15.968 45.548-2.212 63.729zm-29.478-95.819c-5.543.158-10.995 1.011-16.259 2.499-7.461-21.039-22.253-39.137-41.665-50.601-4.754-2.807-10.888-1.229-13.695 3.525-2.809 4.755-1.23 10.887 3.525 13.695 15.87 9.372 27.821 24.342 33.521 41.679-4.137 2.669-8.036 5.789-11.609 9.362-22.108 22.108-26.106 55.29-11.551 79.949-15.33 6.585-32.007 10.038-48.818 10.038-16.815 0-33.488-3.449-48.82-10.035 14.557-24.659 10.56-57.843-11.549-79.952-3.572-3.572-7.47-6.691-11.607-9.36 5.72-17.394 17.759-32.427 33.687-41.779 4.763-2.796 6.356-8.924 3.56-13.687-2.796-4.762-8.922-6.358-13.687-3.56-19.485 11.44-34.387 29.614-41.877 50.725-5.264-1.488-10.715-2.341-16.258-2.498-5.499-.147-10.879.383-16.049 1.551-.592-4.934-.9-9.917-.9-14.905 0-41.825 21.554-81.14 56.556-103.787 19.923 10.809 42.729 16.954 66.944 16.954 24.214 0 47.02-6.144 66.943-16.953 35.005 22.65 56.557 61.955 56.557 103.786 0 4.987-.305 9.97-.897 14.902-5.171-1.169-10.553-1.699-16.052-1.548zm72.497-138.25-54.178 54.177c-.284-.501-.556-1.009-.846-1.507-9.884-16.938-23.188-31.696-38.92-43.307 11.928-9.075 22.369-20.006 30.892-32.36l20.028-20.028c5.746-5.747 13.387-8.911 21.513-8.911 8.127 0 15.767 3.164 21.513 8.911 11.86 11.86 11.86 31.162-.002 43.025z" data-original="#000000" class="active-path" data-old_color="#000000" style="fill:#696767"/><path id="XMLID_680_" d="m207.04 146c2.63 0 5.21-1.07 7.069-2.931 1.87-1.859 2.94-4.439 2.94-7.069s-1.07-5.21-2.94-7.07c-1.859-1.86-4.43-2.93-7.069-2.93-2.63 0-5.21 1.069-7.07 2.93s-2.93 4.44-2.93 7.07 1.069 5.21 2.93 7.069c1.87 1.861 4.44 2.931 7.07 2.931z" data-original="#000000" class="active-path" data-old_color="#000000" style="fill:#696767"/><path id="XMLID_681_" d="m304.95 146c2.63 0 5.21-1.07 7.069-2.931 1.87-1.859 2.94-4.439 2.94-7.069s-1.07-5.21-2.94-7.07c-1.859-1.86-4.43-2.93-7.069-2.93-2.631 0-5.21 1.069-7.07 2.93s-2.93 4.44-2.93 7.07 1.069 5.21 2.93 7.069c1.87 1.861 4.439 2.931 7.07 2.931z" data-original="#000000" class="active-path" data-old_color="#000000" style="fill:#696767"/><path id="XMLID_684_" d="m234.645 209.75c4.827 7.146 12.858 11.412 21.482 11.412s16.655-4.266 21.483-11.412l7.642-11.313c5.38-7.965 5.922-18.185 1.412-26.673-4.509-8.491-13.282-13.764-22.894-13.764h-15.285c-9.612 0-18.386 5.273-22.895 13.764-4.51 8.488-3.968 18.71 1.412 26.673zm8.607-28.604c.503-.945 2.019-3.146 5.232-3.146h15.285c3.214 0 4.729 2.2 5.232 3.146.502.945 1.476 3.433-.323 6.095 0 0 0 .001-.001.001l-7.641 11.313c-1.591 2.354-3.964 2.607-4.91 2.607s-3.319-.254-4.909-2.607l-7.643-11.314c-1.798-2.663-.824-5.15-.322-6.095z" data-original="#000000" class="active-path" data-old_color="#000000" style="fill:#696767"/><path id="XMLID_685_" d="m256 320.5c-2.63 0-5.21 1.069-7.07 2.93s-2.93 4.43-2.93 7.07c0 2.63 1.069 5.21 2.93 7.069 1.86 1.86 4.44 2.931 7.07 2.931s5.21-1.07 7.069-2.931c1.86-1.859 2.931-4.439 2.931-7.069s-1.07-5.21-2.931-7.07c-1.859-1.861-4.439-2.93-7.069-2.93z" data-original="#000000" class="active-path" data-old_color="#000000" style="fill:#696767"/></g> </svg>
