<svg id="Capa_1" enable-background="new 0 0 512 512" height="512" viewBox="0 0 512 512" width="512" xmlns="http://www.w3.org/2000/svg" xmlns:xlink="http://www.w3.org/1999/xlink"><linearGradient id="SVGID_1_" gradientUnits="userSpaceOnUse" x1="0" x2="512" y1="256" y2="256"><stop offset="0" stop-color="#80d8ff"/><stop offset="1" stop-color="#ea80fc"/></linearGradient><path d="m206.567 373.667c-38.139 0-69.167 31.028-69.167 69.167s31.029 69.166 69.167 69.166 69.167-31.028 69.167-69.167-31.028-69.166-69.167-69.166zm0 98.333c-16.083 0-29.167-13.084-29.167-29.167s13.084-29.167 29.167-29.167 29.167 13.084 29.167 29.167-13.084 29.167-29.167 29.167zm285.433-393.333h-341.639l-33.806-67.611c-3.388-6.776-10.313-11.056-17.888-11.056h-78.667c-11.046 0-20 8.954-20 20s8.954 20 20 20h66.306l31.694 63.388v164.133c0 48.163 38.976 87.146 87.146 87.146h152.562c85.272 0 154.292-69.007 154.292-154.292v-101.708c0-11.046-8.954-20-20-20zm-20 121.708c0 63.165-51.117 114.292-114.292 114.292h-152.562c-26.057 0-47.146-21.086-47.146-47.146v-148.854h314zm-88.167 173.292c-38.139 0-69.167 31.028-69.167 69.167s31.029 69.166 69.167 69.166 69.167-31.028 69.167-69.167-31.028-69.166-69.167-69.166zm0 98.333c-16.083 0-29.167-13.084-29.167-29.167s13.084-29.167 29.167-29.167 29.167 13.085 29.167 29.167-13.084 29.167-29.167 29.167z" fill="url(#SVGID_1_)"/></svg>